<svg width="800" height="500" xmlns="http://www.w3.org/2000/svg">
  <style>
    .node { fill: #f3e5f5; stroke: #7b1fa2; stroke-width: 2px; rx: 10; ry: 10; }
    .text { font-family: Arial, sans-serif; font-size: 12px; text-anchor: middle; }
    .arrow { stroke: #7b1fa2; stroke-width: 2; marker-end: url(#arrowhead); }
  </style>

  <defs>
    <marker id="arrowhead" markerWidth="10" markerHeight="7"
      refX="10" refY="3.5" orient="auto">
      <polygon points="0 0, 10 3.5, 0 7" fill="#7b1fa2" />
    </marker>
  </defs>

  <!-- Root Task -->
  <rect x="350" y="20" width="120" height="40" class="node"/>
  <text x="410" y="45" class="text">Clean the room</text>

  <!-- Level 1 Tasks -->
  <rect x="100" y="100" width="120" height="40" class="node"/>
  <text x="160" y="125" class="text">Find trash</text>

  <rect x="350" y="100" width="120" height="40" class="node"/>
  <text x="410" y="125" class="text">Find objects</text>

  <rect x="600" y="100" width="120" height="40" class="node"/>
  <text x="660" y="125" class="text">Check obstacles</text>

  <!-- Level 2 Tasks -->
  <rect x="50" y="200" width="120" height="40" class="node"/>
  <text x="110" y="225" class="text">Pick up trash</text>

  <rect x="150" y="200" width="120" height="40" class="node"/>
  <text x="210" y="225" class="text">Dispose trash</text>

  <rect x="300" y="200" width="120" height="40" class="node"/>
  <text x="360" y="225" class="text">Organize items</text>

  <rect x="400" y="200" width="120" height="40" class="node"/>
  <text x="460" y="225" class="text">Place properly</text>

  <rect x="550" y="200" width="120" height="40" class="node"/>
  <text x="610" y="225" class="text">Navigate around</text>

  <!-- Level 3 Tasks -->
  <rect x="100" y="300" width="120" height="40" class="node"/>
  <text x="160" y="325" class="text">Update map</text>

  <rect x="350" y="300" width="120" height="40" class="node"/>
  <text x="410" y="325" class="text">Update map</text>

  <!-- Final Task -->
  <rect x="350" y="400" width="120" height="40" class="node"/>
  <text x="410" y="425" class="text">Room cleaned</text>

  <!-- Arrows from root -->
  <line x1="410" y1="60" x2="160" y2="100" class="arrow"/>
  <line x1="410" y1="60" x2="410" y2="100" class="arrow"/>
  <line x1="410" y1="60" x2="660" y2="100" class="arrow"/>

  <!-- Arrows from level 1 to level 2 -->
  <line x1="160" y1="140" x2="110" y2="200" class="arrow"/>
  <line x1="160" y1="140" x2="210" y2="200" class="arrow"/>

  <line x1="410" y1="140" x2="360" y2="200" class="arrow"/>
  <line x1="410" y1="140" x2="460" y2="200" class="arrow"/>

  <line x1="660" y1="140" x2="610" y2="200" class="arrow"/>

  <!-- Arrows from level 2 to level 3 -->
  <line x1="110" y1="240" x2="160" y2="300" class="arrow"/>
  <line x1="360" y1="240" x2="410" y2="300" class="arrow"/>

  <!-- Arrows to final task -->
  <line x1="160" y1="340" x2="410" y2="400" class="arrow"/>
  <line x1="410" y1="340" x2="410" y2="400" class="arrow"/>

  <text x="400" y="480" class="text" font-size="16">Task Graph for "Clean the room" Command</text>
</svg>